<svg width="72" height="142" viewBox="0 0 72 142" fill="none" xmlns="http://www.w3.org/2000/svg">
<path d="M14.5039 0.620972C15.2739 -0.798929 17.4236 0.470856 16.6641 1.88074C16.0341 3.06067 15.424 4.25089 14.834 5.46082C4.9578 26.247 0.90748 49.3242 3.11426 72.2313C4.25427 82.9013 7.06424 93.5811 12.3242 102.991C17.1851 111.958 24.6123 119.271 33.6543 123.991C44.1435 129.328 56.1337 130.489 67.7168 129.475C65.0385 126.493 62.6282 123.325 60.084 120.231H60.0439C59.034 119.001 60.8144 117.221 61.8145 118.461C64.9044 122.231 67.8444 126.111 71.2344 129.631C71.4646 129.868 71.5927 130.185 71.5928 130.516C71.5928 130.846 71.4646 131.164 71.2344 131.401C68.1196 134.324 65.4271 137.666 63.2344 141.331C63.1517 141.473 63.0417 141.597 62.9111 141.696C62.7805 141.795 62.6313 141.868 62.4727 141.91C62.3139 141.952 62.148 141.961 61.9854 141.939C61.8228 141.917 61.6662 141.864 61.5244 141.781C61.3826 141.698 61.2576 141.589 61.1582 141.458C61.0589 141.327 60.9871 141.178 60.9453 141.019C60.9035 140.861 60.8929 140.695 60.915 140.532C60.9372 140.37 60.9916 140.213 61.0742 140.071C62.8082 137.184 64.8369 134.488 67.126 132.026C65.9232 132.126 64.7158 132.203 63.5039 132.251C51.5941 132.741 39.4044 130.581 29.1045 124.331C20.1852 118.727 13.0516 110.691 8.54395 101.171C3.58408 91.0609 1.12393 79.8704 0.293945 68.6805C-0.512863 56.8068 0.342099 44.8785 2.83398 33.2411C5.14793 21.8731 9.07774 10.8944 14.5039 0.640503V0.620972Z" fill="#F02653"></path>
</svg>