<svg width="39" height="39" viewBox="0 0 39 39" fill="none" xmlns="http://www.w3.org/2000/svg">
<g clip-path="url(#clip0_33_1551)">
<path d="M1.37939 32.4132V6.20676C1.37939 5.47514 1.67003 4.77349 2.18736 4.25616C2.70469 3.73883 3.40635 3.44819 4.13797 3.44819H14.3171C14.9472 3.42983 15.5647 3.62787 16.0666 4.00932C16.5685 4.39078 16.9246 4.93265 17.0757 5.54471L17.9308 8.96533H34.4823C35.2139 8.96533 35.9155 9.25597 36.4329 9.7733C36.9502 10.2906 37.2408 10.9923 37.2408 11.7239V32.4132C37.2408 33.1448 36.9502 33.8465 36.4329 34.3638C35.9155 34.8811 35.2139 35.1718 34.4823 35.1718H4.13797C3.40635 35.1718 2.70469 34.8811 2.18736 34.3638C1.67003 33.8465 1.37939 33.1448 1.37939 32.4132Z" stroke="black" stroke-width="2.7853" stroke-linecap="round" stroke-linejoin="round"></path>
<path d="M13.793 24.1375L17.9308 26.8961L24.8273 15.8618" stroke="black" stroke-width="2.7853" stroke-linecap="round" stroke-linejoin="round"></path>
</g>
<defs>
<clipPath id="clip0_33_1551">
<rect width="38.62" height="38.62" fill="white"></rect>
</clipPath>
</defs>
</svg>